<?xml version="1.0" encoding="utf-8"?>
<!-- Generator: Adobe Illustrator 16.0.0, SVG Export Plug-In . SVG Version: 6.00 Build 0)  -->
<!DOCTYPE svg PUBLIC "-//W3C//DTD SVG 1.1//EN" "http://www.w3.org/Graphics/SVG/1.1/DTD/svg11.dtd">
<svg version="1.1" id="Layer_1" xmlns="http://www.w3.org/2000/svg" xmlns:xlink="http://www.w3.org/1999/xlink" x="0px" y="0px"
	 width="15px" height="15px" viewBox="0 0 15 15" enable-background="new 0 0 15 15" xml:space="preserve">
<path fill="#010101" d="M7.5,0.018c-4.132,0-7.482,3.35-7.482,7.482c0,4.133,3.35,7.482,7.482,7.482c4.133,0,7.482-3.35,7.482-7.482
	C14.982,3.368,11.633,0.018,7.5,0.018z M7.5,13.982c-3.574,0-6.482-2.908-6.482-6.482S3.926,1.018,7.5,1.018
	s6.482,2.908,6.482,6.482S11.074,13.982,7.5,13.982z M9.71,2.829H8.486C8.478,2.828,8.46,2.827,8.431,2.827
	c-0.211,0-0.949,0.042-1.531,0.577C6.254,3.998,6.344,4.709,6.366,4.833v1.138H5.29c-0.083,0-0.15,0.067-0.15,0.15v1.533
	c0,0.083,0.067,0.15,0.15,0.15h1.025v4.217c0,0.084,0.067,0.151,0.15,0.151h1.738c0.083,0,0.149-0.067,0.149-0.151V7.825H9.53
	c0.076,0,0.142-0.059,0.149-0.135L9.86,6.139c0.003-0.043-0.009-0.086-0.039-0.118c-0.026-0.032-0.068-0.05-0.111-0.05H8.353V4.997
	c0-0.293,0.159-0.442,0.47-0.442c0.046,0,0.888,0,0.888,0c0.083,0,0.15-0.067,0.15-0.15V2.979C9.86,2.896,9.793,2.829,9.71,2.829z"
	/>
</svg>
