<?xml version="1.0" encoding="utf-8"?>
<!-- Generator: Adobe Illustrator 16.0.0, SVG Export Plug-In . SVG Version: 6.00 Build 0)  -->
<!DOCTYPE svg PUBLIC "-//W3C//DTD SVG 1.1//EN" "http://www.w3.org/Graphics/SVG/1.1/DTD/svg11.dtd">
<svg version="1.1" xmlns="http://www.w3.org/2000/svg" xmlns:xlink="http://www.w3.org/1999/xlink" x="0px" y="0px" width="15px"
	 height="15px" viewBox="0 0 15 15" enable-background="new 0 0 15 15" xml:space="preserve">
<g id="facebook">
	<path fill="#010101" d="M7.5,0.018c-4.132,0-7.482,3.35-7.482,7.482c0,4.133,3.35,7.482,7.482,7.482
		c4.133,0,7.482-3.35,7.482-7.482C14.982,3.368,11.633,0.018,7.5,0.018z M7.5,13.982c-3.574,0-6.482-2.908-6.482-6.482
		S3.926,1.018,7.5,1.018s6.482,2.908,6.482,6.482S11.074,13.982,7.5,13.982z M9.71,2.829H8.486C8.478,2.828,8.46,2.827,8.431,2.827
		c-0.211,0-0.949,0.042-1.531,0.577C6.254,3.998,6.344,4.709,6.366,4.833v1.138H5.29c-0.083,0-0.15,0.067-0.15,0.15v1.533
		c0,0.083,0.067,0.15,0.15,0.15h1.025v4.217c0,0.084,0.067,0.151,0.15,0.151h1.738c0.083,0,0.149-0.067,0.149-0.151V7.825H9.53
		c0.076,0,0.142-0.059,0.149-0.135L9.86,6.139c0.003-0.043-0.009-0.086-0.039-0.118c-0.026-0.032-0.068-0.05-0.111-0.05H8.353V4.997
		c0-0.293,0.159-0.442,0.47-0.442c0.046,0,0.888,0,0.888,0c0.083,0,0.15-0.067,0.15-0.15V2.979C9.86,2.896,9.793,2.829,9.71,2.829z"
		/>
</g>
<g id="twitter">
	<path fill="#010101" d="M7.5,0.018c-4.132,0-7.482,3.35-7.482,7.482c0,4.133,3.35,7.482,7.482,7.482
		c4.133,0,7.482-3.35,7.482-7.482C14.982,3.368,11.633,0.018,7.5,0.018z M7.5,13.982c-3.574,0-6.482-2.908-6.482-6.482
		S3.926,1.018,7.5,1.018s6.482,2.908,6.482,6.482S11.074,13.982,7.5,13.982z M11.563,4.82c-0.135,0.06-0.272,0.11-0.412,0.15
		c0.166-0.188,0.292-0.41,0.371-0.651c0.017-0.054,0-0.114-0.046-0.15c-0.044-0.036-0.106-0.04-0.155-0.01
		c-0.299,0.176-0.62,0.303-0.957,0.378c-0.34-0.333-0.803-0.521-1.279-0.521c-1.007,0-1.826,0.819-1.826,1.827
		c0,0.08,0.003,0.158,0.015,0.236c-1.25-0.11-2.412-0.725-3.211-1.703C4.033,4.341,3.99,4.322,3.945,4.325
		C3.9,4.329,3.86,4.354,3.837,4.394C3.675,4.671,3.589,4.989,3.589,5.312c0,0.44,0.158,0.858,0.435,1.184
		C3.939,6.467,3.858,6.431,3.78,6.387C3.738,6.363,3.687,6.363,3.645,6.388S3.577,6.455,3.576,6.503v0.024
		c0,0.658,0.354,1.249,0.894,1.572C4.423,8.094,4.377,8.088,4.331,8.08C4.283,8.07,4.235,8.088,4.203,8.123
		C4.17,8.16,4.16,8.211,4.175,8.256c0.2,0.625,0.716,1.084,1.338,1.225C4.997,9.805,4.405,9.973,3.785,9.973
		c-0.129,0-0.259-0.006-0.387-0.021c-0.063-0.01-0.123,0.029-0.146,0.09c-0.021,0.061,0.001,0.127,0.055,0.162
		c0.797,0.51,1.719,0.781,2.665,0.781c1.86,0,3.024-0.877,3.672-1.613c0.808-0.918,1.272-2.132,1.272-3.333
		c0-0.049-0.001-0.1-0.002-0.151c0.319-0.24,0.593-0.531,0.815-0.866c0.036-0.05,0.032-0.117-0.008-0.165
		C11.684,4.81,11.618,4.795,11.563,4.82z"/>
</g>
<g id="instagram">
	<path d="M10.346,4.082H9.459c-0.266,0-0.48,0.215-0.48,0.48v0.887c0,0.266,0.215,0.48,0.48,0.48h0.887
		c0.266,0,0.48-0.215,0.48-0.48V4.562C10.826,4.296,10.611,4.082,10.346,4.082z M10.456,5.445c0,0.061-0.033,0.115-0.096,0.115
		H9.474c-0.061,0-0.126-0.054-0.126-0.115V4.558c0-0.061,0.065-0.107,0.126-0.107h0.887c0.063,0,0.096,0.046,0.096,0.107V5.445z
		 M9.948,3.342H5.074c-0.997,0-1.824,0.81-1.824,1.811V9.84c0,1,0.827,1.818,1.824,1.818h4.874c0.997,0,1.802-0.818,1.802-1.818
		V5.153C11.75,4.152,10.945,3.342,9.948,3.342z M11.38,9.84c0,0.797-0.639,1.447-1.432,1.447H5.074c-0.793,0-1.455-0.65-1.455-1.447
		V6.853h2.304C5.428,7.269,5.113,7.905,5.113,8.607c0,1.273,1.036,2.307,2.31,2.307s2.311-1.033,2.311-2.307
		c0-0.703-0.316-1.339-0.812-1.754h2.458V9.84z M7.423,6.665c1.069,0,1.94,0.871,1.94,1.941c0,1.068-0.871,1.939-1.94,1.939
		c-1.07,0-1.939-0.871-1.939-1.939C5.483,7.536,6.353,6.665,7.423,6.665z M11.38,6.484H8.328C8.051,6.345,7.744,6.299,7.423,6.299
		c-0.32,0-0.626,0.046-0.904,0.185H3.62V5.153c0-0.797,0.661-1.441,1.455-1.441h4.874c0.793,0,1.432,0.645,1.432,1.441V6.484z
		 M7.423,9.99c0.765,0,1.386-0.621,1.386-1.385c0-0.765-0.621-1.387-1.386-1.387c-0.764,0-1.386,0.622-1.386,1.387
		C6.037,9.369,6.659,9.99,7.423,9.99z M7.423,7.588c0.561,0,1.017,0.457,1.017,1.017S7.983,9.621,7.423,9.621
		S6.406,9.166,6.406,8.605S6.862,7.588,7.423,7.588z M7.5,0.018c-4.132,0-7.482,3.35-7.482,7.482c0,4.133,3.35,7.482,7.482,7.482
		c4.133,0,7.482-3.35,7.482-7.482C14.982,3.368,11.633,0.018,7.5,0.018z M7.5,13.982c-3.574,0-6.482-2.908-6.482-6.482
		S3.926,1.018,7.5,1.018s6.482,2.908,6.482,6.482S11.074,13.982,7.5,13.982z"/>
</g>
</svg>
