<?xml version="1.0" encoding="utf-8"?>
<!-- Generator: Adobe Illustrator 16.0.0, SVG Export Plug-In . SVG Version: 6.00 Build 0)  -->
<!DOCTYPE svg PUBLIC "-//W3C//DTD SVG 1.1//EN" "http://www.w3.org/Graphics/SVG/1.1/DTD/svg11.dtd">
<svg version="1.1" id="Layer_1" xmlns="http://www.w3.org/2000/svg" xmlns:xlink="http://www.w3.org/1999/xlink" x="0px" y="0px"
	 width="15px" height="15px" viewBox="0 0 15 15" enable-background="new 0 0 15 15" xml:space="preserve">
<path fill="#010101" d="M7.5,0.018c-4.132,0-7.482,3.35-7.482,7.482c0,4.133,3.35,7.482,7.482,7.482c4.133,0,7.482-3.35,7.482-7.482
	C14.982,3.368,11.633,0.018,7.5,0.018z M7.5,13.982c-3.574,0-6.482-2.908-6.482-6.482S3.926,1.018,7.5,1.018
	s6.482,2.908,6.482,6.482S11.074,13.982,7.5,13.982z M11.563,4.82c-0.135,0.06-0.272,0.11-0.412,0.15
	c0.166-0.188,0.292-0.41,0.371-0.651c0.017-0.054,0-0.114-0.046-0.15c-0.044-0.036-0.106-0.04-0.155-0.01
	c-0.299,0.176-0.62,0.303-0.957,0.378c-0.34-0.333-0.803-0.521-1.279-0.521c-1.007,0-1.826,0.819-1.826,1.827
	c0,0.08,0.003,0.158,0.015,0.236c-1.25-0.11-2.412-0.725-3.211-1.703C4.033,4.341,3.99,4.322,3.945,4.325
	C3.9,4.329,3.86,4.354,3.837,4.394C3.675,4.671,3.589,4.989,3.589,5.312c0,0.44,0.158,0.858,0.435,1.184
	C3.939,6.467,3.858,6.431,3.78,6.387C3.738,6.363,3.687,6.363,3.645,6.388S3.577,6.455,3.576,6.503v0.024
	c0,0.658,0.354,1.249,0.894,1.572C4.423,8.094,4.377,8.088,4.331,8.08C4.283,8.07,4.235,8.088,4.203,8.123
	C4.17,8.16,4.16,8.211,4.175,8.256c0.2,0.625,0.716,1.084,1.338,1.225C4.997,9.805,4.405,9.973,3.785,9.973
	c-0.129,0-0.259-0.006-0.387-0.021c-0.063-0.01-0.123,0.029-0.146,0.09c-0.021,0.061,0.001,0.127,0.055,0.162
	c0.797,0.51,1.719,0.781,2.665,0.781c1.86,0,3.024-0.877,3.672-1.613c0.808-0.918,1.272-2.132,1.272-3.333
	c0-0.049-0.001-0.1-0.002-0.151c0.319-0.24,0.593-0.531,0.815-0.866c0.036-0.05,0.032-0.117-0.008-0.165
	C11.684,4.81,11.618,4.795,11.563,4.82z"/>
</svg>
