<?xml version="1.0" encoding="utf-8"?>
<!-- Generator: Adobe Illustrator 16.0.0, SVG Export Plug-In . SVG Version: 6.00 Build 0)  -->
<!DOCTYPE svg PUBLIC "-//W3C//DTD SVG 1.1//EN" "http://www.w3.org/Graphics/SVG/1.1/DTD/svg11.dtd">
<svg version="1.1" xmlns="http://www.w3.org/2000/svg" xmlns:xlink="http://www.w3.org/1999/xlink" x="0px" y="0px"
	 width="20.012px" height="20.012px" viewBox="-2.506 -2.506 20.012 20.012" enable-background="new -2.506 -2.506 20.012 20.012"
	 xml:space="preserve">
<g id="Layer_1">
	<path d="M7.499-2.419c-5.477,0-9.918,4.441-9.918,9.918c0,5.479,4.441,9.92,9.918,9.92c5.479,0,9.92-4.443,9.92-9.92
		C17.419,2.023,12.979-2.419,7.499-2.419z M7.499,16.093c-4.738,0-8.593-3.855-8.593-8.594c0-4.738,3.855-8.593,8.593-8.593
		c4.738,0,8.594,3.855,8.594,8.593C16.093,12.237,12.237,16.093,7.499,16.093z"/>
</g>
<g id="Layer_2">
	<path d="M9.709,2.83H8.485C8.478,2.829,8.459,2.828,8.431,2.828c-0.211,0-0.95,0.042-1.532,0.576
		C6.253,3.999,6.343,4.71,6.365,4.834v1.138H5.289c-0.083,0-0.15,0.067-0.15,0.15v1.533c0,0.082,0.067,0.15,0.15,0.15h1.025v4.217
		c0,0.084,0.067,0.149,0.15,0.149h1.738c0.083,0,0.148-0.065,0.148-0.149V7.826h1.178c0.076,0,0.143-0.06,0.15-0.136l0.18-1.551
		c0.004-0.043-0.008-0.086-0.039-0.117C9.794,5.99,9.752,5.972,9.709,5.972H8.353V4.998c0-0.293,0.158-0.442,0.471-0.442
		c0.046,0,0.888,0,0.888,0c0.083,0,0.149-0.067,0.149-0.15V2.979C9.858,2.896,9.792,2.83,9.709,2.83z"/>
</g>
</svg>
