<?xml version="1.0" encoding="utf-8"?>
<!-- Generator: Adobe Illustrator 16.0.0, SVG Export Plug-In . SVG Version: 6.00 Build 0)  -->
<!DOCTYPE svg PUBLIC "-//W3C//DTD SVG 1.1//EN" "http://www.w3.org/Graphics/SVG/1.1/DTD/svg11.dtd">
<svg version="1.1" xmlns="http://www.w3.org/2000/svg" xmlns:xlink="http://www.w3.org/1999/xlink" x="0px" y="0px" width="20px"
	 height="20px" viewBox="-2.5 -2.5 20 20" enable-background="new -2.5 -2.5 20 20" xml:space="preserve">
<g id="Layer_1">
	<path d="M7.5-2.545C1.953-2.545-2.545,1.953-2.545,7.5c0,5.548,4.498,10.045,10.044,10.045c5.548,0,10.045-4.5,10.045-10.045
		S13.048-2.545,7.5-2.545z M7.5,16.202c-4.798,0-8.702-3.904-8.702-8.703c0-4.798,3.904-8.702,8.702-8.702
		c4.798,0,8.703,3.904,8.703,8.702C16.202,12.298,12.298,16.202,7.5,16.202z"/>
</g>
<g id="Layer_1_copy">
	<path d="M10.346,4.082H9.459c-0.266,0-0.48,0.215-0.48,0.48v0.887c0,0.266,0.215,0.48,0.48,0.48h0.887
		c0.266,0,0.48-0.215,0.48-0.48V4.562C10.826,4.296,10.611,4.082,10.346,4.082z M10.456,5.445c0,0.061-0.033,0.115-0.097,0.115
		H9.475c-0.062,0-0.127-0.054-0.127-0.115V4.558c0-0.061,0.065-0.107,0.127-0.107h0.887c0.063,0,0.097,0.046,0.097,0.107
		L10.456,5.445L10.456,5.445z M11.75,5.153c0-1.001-0.805-1.811-1.802-1.811H5.074c-0.997,0-1.824,0.81-1.824,1.811V9.84
		c0,1,0.827,1.818,1.824,1.818h4.874c0.997,0,1.802-0.818,1.802-1.818 M11.38,9.84c0,0.797-0.639,1.447-1.432,1.447H5.074
		c-0.793,0-1.455-0.65-1.455-1.447V6.853h2.304c-0.495,0.416-0.81,1.052-0.81,1.754c0,1.271,1.036,2.307,2.31,2.307
		c1.274,0,2.312-1.033,2.312-2.307c0-0.705-0.315-1.339-0.813-1.754h2.458V9.84z M7.423,6.665c1.069,0,1.94,0.871,1.94,1.94
		c0,1.067-0.871,1.938-1.94,1.938c-1.07,0-1.939-0.871-1.939-1.938C5.483,7.536,6.353,6.665,7.423,6.665z M11.38,6.484H8.328
		C8.051,6.345,7.744,6.299,7.423,6.299c-0.32,0-0.626,0.046-0.904,0.185H3.62V5.153c0-0.797,0.661-1.441,1.455-1.441h4.874
		c0.793,0,1.432,0.645,1.432,1.441L11.38,6.484L11.38,6.484z M7.423,9.99c0.765,0,1.386-0.621,1.386-1.385
		c0-0.767-0.621-1.389-1.386-1.389c-0.764,0-1.386,0.622-1.386,1.389C6.037,9.369,6.659,9.99,7.423,9.99z M7.423,7.588
		c0.561,0,1.017,0.457,1.017,1.018S7.983,9.622,7.423,9.622S6.406,9.166,6.406,8.605C6.406,8.044,6.862,7.588,7.423,7.588z"/>
</g>
</svg>
