<?xml version="1.0" encoding="utf-8"?>
<!-- Generator: Adobe Illustrator 16.0.0, SVG Export Plug-In . SVG Version: 6.00 Build 0)  -->
<!DOCTYPE svg PUBLIC "-//W3C//DTD SVG 1.1//EN" "http://www.w3.org/Graphics/SVG/1.1/DTD/svg11.dtd">
<svg version="1.1" id="Layer_1" xmlns="http://www.w3.org/2000/svg" xmlns:xlink="http://www.w3.org/1999/xlink" x="0px" y="0px"
	 width="20px" height="20px" viewBox="-2.5 -2.5 20 20" enable-background="new -2.5 -2.5 20 20" xml:space="preserve">
<path d="M7.5-2.5c-5.522,0-10,4.478-10,10c0,5.524,4.478,10,10,10c5.524,0,10-4.479,10-10C17.5,1.979,13.023-2.5,7.5-2.5z
	 M7.5,16.163c-4.777,0-8.663-3.886-8.663-8.664c0-4.777,3.886-8.663,8.663-8.663c4.778,0,8.664,3.886,8.664,8.663
	C16.163,12.277,12.277,16.163,7.5,16.163z"/>
<path d="M11.564,4.82c-0.135,0.06-0.271,0.11-0.412,0.15c0.166-0.188,0.293-0.41,0.371-0.651c0.019-0.054,0-0.114-0.045-0.15
	s-0.105-0.04-0.156-0.01c-0.299,0.176-0.618,0.303-0.955,0.378c-0.342-0.333-0.805-0.521-1.279-0.521
	c-1.007,0-1.826,0.818-1.826,1.826c0,0.08,0.004,0.158,0.016,0.236c-1.25-0.11-2.413-0.725-3.211-1.703
	C4.035,4.34,3.992,4.322,3.947,4.325C3.902,4.329,3.862,4.354,3.839,4.394C3.677,4.67,3.591,4.989,3.591,5.312
	c0,0.439,0.158,0.857,0.435,1.184C3.941,6.466,3.86,6.431,3.782,6.387C3.74,6.363,3.689,6.363,3.647,6.388
	C3.605,6.413,3.579,6.455,3.578,6.502v0.024c0,0.658,0.354,1.248,0.894,1.573C4.425,8.094,4.379,8.088,4.333,8.08
	C4.285,8.07,4.237,8.088,4.205,8.123C4.172,8.16,4.162,8.211,4.177,8.256c0.2,0.625,0.716,1.084,1.338,1.225
	C4.999,9.805,4.407,9.973,3.787,9.973c-0.129,0-0.259-0.006-0.387-0.021c-0.063-0.01-0.123,0.029-0.146,0.09
	c-0.021,0.063,0.001,0.127,0.055,0.162c0.797,0.51,1.719,0.781,2.665,0.781c1.86,0,3.024-0.877,3.672-1.613
	c0.808-0.918,1.271-2.131,1.271-3.333c0-0.049-0.001-0.1-0.002-0.15c0.317-0.24,0.593-0.531,0.813-0.866
	c0.037-0.05,0.032-0.117-0.008-0.165C11.686,4.81,11.62,4.794,11.564,4.82z"/>
</svg>
